<svg xmlns="http://www.w3.org/2000/svg" width="52" height="42" viewBox="0 0 52 42" id="logo">
    <path d="M25.8745 2L2 41H4.00784L4.8549 39.0968L5.60784 41H7.52157L8.33726 39.0968L7.52157 37.4744H9.05882L10.0314 35.6336L11.0039 37.4744H12.7294L11.8196 39.0968L12.7294 41H14.3922L15.3647 39.3464L16.2431 41H18.0627L18.9412 39.0968L18 37.3184L19.7569 37.2248L20.5412 35.6336L19.6314 33.8552H18L18.8157 32.0768L18 30.392H19.7882L20.5412 28.7384L21.451 30.392H23.2392L24.0863 28.4576L23.2392 26.8352H24.902L25.8118 25.1816L26.6275 26.8352H28.5725L27.6 28.7384L28.5725 30.392H30.1726L31.1765 28.7384L31.9608 30.392H33.9059L32.9961 31.9832L33.9059 33.8552H31.9608L31.1765 35.6336L31.9608 37.4744H33.9059L32.9961 39.3464L33.9059 41H35.5373L36.4471 39.3464L37.2314 41H39.1451L39.898 39.0968L39.1451 37.4744H40.7451L41.6549 35.6336L42.6902 37.4744H44.4157L43.4431 39.0968L44.4157 41H46.0157L46.9569 39.3464L47.8667 41H50L25.8745 2Z"/>
</svg>